<svg width="29" height="26" viewBox="0 0 29 26" fill="none" xmlns="http://www.w3.org/2000/svg">
<path d="M11.9492 24.232C11.9492 24.5781 11.8466 24.9165 11.6543 25.2043C11.462 25.492 11.1887 25.7163 10.8689 25.8488C10.5491 25.9813 10.1973 26.0159 9.85781 25.9484C9.51834 25.8809 9.20652 25.7142 8.96178 25.4694C8.71704 25.2247 8.55037 24.9129 8.48284 24.5734C8.41532 24.234 8.44998 23.8821 8.58243 23.5623C8.71488 23.2425 8.93918 22.9692 9.22697 22.7769C9.51476 22.5846 9.8531 22.482 10.1992 22.482C10.6633 22.482 11.1085 22.6664 11.4367 22.9946C11.7648 23.3228 11.9492 23.7679 11.9492 24.232ZM23.1992 22.482C22.8531 22.482 22.5148 22.5846 22.227 22.7769C21.9392 22.9692 21.7149 23.2425 21.5824 23.5623C21.45 23.8821 21.4153 24.234 21.4828 24.5734C21.5504 24.9129 21.717 25.2247 21.9618 25.4694C22.2065 25.7142 22.5183 25.8809 22.8578 25.9484C23.1973 26.0159 23.5491 25.9813 23.8689 25.8488C24.1887 25.7163 24.462 25.492 24.6543 25.2043C24.8466 24.9165 24.9492 24.5781 24.9492 24.232C24.9492 23.7679 24.7648 23.3228 24.4367 22.9946C24.1085 22.6664 23.6633 22.482 23.1992 22.482ZM28.9155 6.45201L25.3505 18.0408C25.1796 18.6034 24.832 19.0961 24.3592 19.4458C23.8864 19.7954 23.3135 19.9835 22.7255 19.982H10.708C10.11 19.9798 9.52895 19.7837 9.05201 19.423C8.57506 19.0624 8.22801 18.5567 8.06297 17.982L3.54297 2.16326C3.52799 2.11089 3.49632 2.06485 3.45277 2.03213C3.40923 1.99942 3.35619 1.98182 3.30172 1.98201H1.19922C1.00031 1.98201 0.809541 1.90299 0.668889 1.76234C0.528236 1.62169 0.449219 1.43092 0.449219 1.23201C0.449219 1.0331 0.528236 0.842332 0.668889 0.70168C0.809541 0.561027 1.00031 0.48201 1.19922 0.48201H3.30172C3.68167 0.483034 4.05103 0.607247 4.3544 0.836009C4.65776 1.06477 4.87875 1.38574 4.98422 1.75076L6.05047 5.48201H28.1992C28.3165 5.48213 28.4321 5.50974 28.5367 5.56262C28.6414 5.6155 28.7322 5.69218 28.8018 5.7865C28.8715 5.88082 28.918 5.99016 28.9378 6.10574C28.9575 6.22132 28.9499 6.33992 28.9155 6.45201ZM27.1842 6.98201H6.47922L9.50547 17.5758C9.58018 17.837 9.73798 18.0667 9.95495 18.2303C10.1719 18.3938 10.4363 18.4822 10.708 18.482H22.7217C22.9891 18.4821 23.2495 18.3964 23.4645 18.2375C23.6796 18.0787 23.8381 17.8551 23.9167 17.5995L27.1842 6.98201Z" fill="#26614D"/>
</svg>
