<svg width="30" height="27" viewBox="0 0 30 27" fill="none" xmlns="http://www.w3.org/2000/svg">
<path d="M12.1992 24.232C12.1992 24.6276 12.0819 25.0143 11.8622 25.3432C11.6424 25.672 11.33 25.9284 10.9646 26.0798C10.5991 26.2311 10.197 26.2708 9.80904 26.1936C9.42108 26.1164 9.06471 25.9259 8.78501 25.6462C8.5053 25.3665 8.31482 25.0102 8.23765 24.6222C8.16048 24.2342 8.20008 23.8321 8.35146 23.4666C8.50283 23.1012 8.75918 22.7888 9.08808 22.5691C9.41698 22.3493 9.80366 22.232 10.1992 22.232C10.7297 22.232 11.2384 22.4427 11.6134 22.8178C11.9885 23.1929 12.1992 23.7016 12.1992 24.232ZM23.1992 22.232C22.8037 22.232 22.417 22.3493 22.0881 22.5691C21.7592 22.7888 21.5028 23.1012 21.3515 23.4666C21.2001 23.8321 21.1605 24.2342 21.2376 24.6222C21.3148 25.0102 21.5053 25.3665 21.785 25.6462C22.0647 25.9259 22.4211 26.1164 22.809 26.1936C23.197 26.2708 23.5991 26.2311 23.9646 26.0798C24.33 25.9284 24.6424 25.672 24.8622 25.3432C25.0819 25.0143 25.1992 24.6276 25.1992 24.232C25.1992 23.7016 24.9885 23.1929 24.6134 22.8178C24.2384 22.4427 23.7297 22.232 23.1992 22.232ZM29.0042 5.63826C28.9112 5.51224 28.7899 5.40982 28.6501 5.33925C28.5103 5.26869 28.3558 5.23196 28.1992 5.23201H6.23922L5.22547 1.68201C5.10448 1.26494 4.85167 0.898269 4.50489 0.636882C4.1581 0.375495 3.73598 0.23345 3.30172 0.23201H1.19922C0.934002 0.23201 0.679648 0.337367 0.492112 0.524903C0.304576 0.712439 0.199219 0.966793 0.199219 1.23201C0.199219 1.49723 0.304576 1.75158 0.492112 1.93912C0.679648 2.12665 0.934002 2.23201 1.19922 2.23201H3.30172L7.82422 18.0558C8.0052 18.6814 8.38399 19.2316 8.90385 19.6239C9.42372 20.0162 10.0567 20.2296 10.708 20.232H22.7217C23.3638 20.2342 23.9895 20.0295 24.5061 19.648C25.0226 19.2666 25.4024 18.7288 25.5892 18.1145L29.1555 6.52576C29.2014 6.3763 29.2116 6.21816 29.1854 6.06403C29.1591 5.90989 29.0971 5.76407 29.0042 5.63826Z" fill="#26614D"/>
</svg>
