<svg width="26" height="26" viewBox="0 0 26 26" fill="none" xmlns="http://www.w3.org/2000/svg">
<path d="M25.5301 24.47L19.1076 18.0475C20.9391 15.9413 21.8812 13.2063 21.7355 10.419C21.5897 7.63165 20.3674 5.00981 18.3263 3.10611C16.2851 1.20241 13.5846 0.165586 10.7939 0.21419C8.00318 0.262794 5.34036 1.39303 3.36674 3.36665C1.39312 5.34027 0.262885 8.00308 0.214281 10.7938C0.165677 13.5845 1.2025 16.285 3.1062 18.3262C5.0099 20.3673 7.63174 21.5896 10.4191 21.7354C13.2064 21.8811 15.9414 20.939 18.0476 19.1075L24.4701 25.53C24.6123 25.6625 24.8003 25.7346 24.9946 25.7312C25.1889 25.7277 25.3743 25.649 25.5117 25.5116C25.6491 25.3742 25.7278 25.1888 25.7313 24.9945C25.7347 24.8002 25.6626 24.6122 25.5301 24.47ZM1.75009 11C1.75009 9.17052 2.29259 7.38213 3.30899 5.86097C4.3254 4.33982 5.77005 3.15422 7.46027 2.45411C9.15048 1.754 11.0103 1.57082 12.8047 1.92773C14.599 2.28465 16.2472 3.16562 17.5408 4.45926C18.8345 5.75289 19.7154 7.40109 20.0724 9.19541C20.4293 10.9897 20.2461 12.8496 19.546 14.5398C18.8459 16.23 17.6603 17.6747 16.1391 18.6911C14.618 19.7075 12.8296 20.25 11.0001 20.25C8.54775 20.247 6.1967 19.2715 4.46264 17.5374C2.72857 15.8034 1.75306 13.4523 1.75009 11Z" fill="#26614D"/>
</svg>
